<svg xmlns="http://www.w3.org/2000/svg" xmlns:xlink="http://www.w3.org/1999/xlink" version="1.1" x="0px" y="0px" viewBox="-434 236 90 90" style="enable-background:new -434 236 90 90;" xml:space="preserve"><style type="text/css">
	.st0{fill:none;stroke:#000000;stroke-miterlimit:10;}
	.st1{stroke:#000000;stroke-miterlimit:10;}
</style><path class="st0" d="M-1655,1023"></path><line class="st0" x1="-1654" y1="1023" x2="-1654" y2="1023"></line><path class="st1" d="M-354.2,268.8c-1.9-2.4-5.2-1.9-5.2-1.9s-1.4,0.7-1.1,1.8s-0.6,1.3-0.6,1.3s-0.3,0.3-0.5-0.2  c-0.1-0.5-5.6-10.3-6.3-11.2c-0.6-0.7-0.7-0.8-0.7-0.8s-11.7-1.3-18.4-1.3c0,0-1.4,0-2,0s-2,0-2,0c-6.7,0-18.4,1.3-18.4,1.3  s-0.1,0.1-0.7,0.8c-0.7,0.9-6.2,10.7-6.3,11.2c-0.2,0.5-0.5,0.2-0.5,0.2s-0.9-0.2-0.6-1.3c0.3-1.1-1.1-1.8-1.1-1.8s-3.3-0.5-5.2,1.9  c-1.9,2.3,0.9,3,0.9,3l5.6-0.1l-4.5,8.3c0,0-0.3,9.7-0.2,14.1c0.2,3.6,1.6,4.1,2.6,4.2v5.8c0,0.9,1.1,1.5,2,1.5h5.3  c0.9,0,1.7-0.6,1.7-1.5v-4.5h42.7v4.5c0,0.9,0.8,1.5,1.7,1.5h5.3c0.9,0,2-0.6,2-1.5v-5.8c1-0.1,2.4-0.6,2.6-4.2  c0.1-4.4-0.2-14.1-0.2-14.1l-4.5-8.3l5.6,0.1C-355.1,271.8-352.3,271-354.2,268.8z M-413.9,268.8c0.7-1.3,4.1-8.4,4.1-8.4  s0.6-0.9,1.8-0.9h14.1c0,0,1.9,0,4.5,0h5.4h14.1c1.2,0,1.8,0.9,1.8,0.9s3.4,7.1,4.1,8.4s-0.8,1.4-0.9,1.4l-24.6-0.2  c-23.2,0-23.5,0.2-23.5,0.2C-413.1,270.3-414.6,270.2-413.9,268.8z M-410.6,289.7c-2.4,0-4.3-2-4.3-4.4c0-2.4,1.9-4.4,4.3-4.4  s4.3,2,4.3,4.4C-406.3,287.7-408.2,289.7-410.6,289.7z M-376.8,295.5h-24.3c-1.3,0-2.3-0.9-2.3-2.2c0-0.6,0.3-1,0.7-1.4  c0.4-0.4,1-0.4,1.6-0.4h24.3c0.6,0,1.2,0,1.6,0.4c0.4,0.4,0.7,0.8,0.7,1.4C-374.5,294.5-375.5,295.5-376.8,295.5z M-367.3,289.7  c-2.4,0-4.3-2-4.3-4.4c0-2.4,1.9-4.4,4.3-4.4s4.3,2,4.3,4.4C-363,287.7-364.9,289.7-367.3,289.7z"></path></svg>