<?xml version="1.0" encoding="utf-8"?>
<!-- Generator: Adobe Illustrator 22.0.1, SVG Export Plug-In . SVG Version: 6.00 Build 0)  -->
<svg version="1.1" id="Layer_1" xmlns="http://www.w3.org/2000/svg" xmlns:xlink="http://www.w3.org/1999/xlink" x="0px" y="0px"
	 viewBox="0 0 60 39" style="enable-background:new 0 0 60 39;" xml:space="preserve">
<style type="text/css">
	.st0{fill:#E74C3C;}
</style>
<title>np_venn-diagram_666504_000000</title>
<desc>Created with Sketch.</desc>
<g id="Welcome">
	<g id="Home-filter-Copy" transform="translate(-146.000000, -893.000000)">
		<g id="np_venn-diagram_666504_000000" transform="translate(146.000000, 893.000000)">
			<path id="Shape" class="st0" d="M40.2,1.3c-3.6,0-7.1,1.1-10.1,3.1c-3-2-6.5-3.1-10.1-3.1C10.1,1.3,2,9.4,2,19.4
				c0,10,8.1,18.1,18.1,18.1c3.6,0,7.1-1.1,10.1-3.1c3,2,6.5,3.1,10.1,3.1c10,0,18.1-8.1,18.1-18.1C58.3,9.4,50.2,1.3,40.2,1.3z
				 M34.5,27.7l-7.1,2.3c-0.3-0.3-0.5-0.6-0.7-1l8.6-2.8C35,26.8,34.8,27.3,34.5,27.7L34.5,27.7z M36.4,22.9l-11.3,3.7
				c-0.2-0.3-0.3-0.7-0.5-1.1l12-3.9C36.6,22,36.5,22.4,36.4,22.9L36.4,22.9z M23.8,22.7c-0.1-0.4-0.1-0.8-0.2-1.1l13-4.2
				c0,0.4,0.1,0.8,0.1,1.2L23.8,22.7z M23.5,18.5c0-0.4,0.1-0.8,0.1-1.2l12-3.9c0.1,0.4,0.3,0.7,0.4,1.1L23.5,18.5z M24.4,14
				c0.2-0.5,0.3-0.9,0.5-1.4l8.8-2.9c0.2,0.3,0.4,0.7,0.7,1L24.4,14z M3.3,19.4c0-9.2,7.5-16.7,16.7-16.7c3.2,0,6.3,0.9,9,2.6
				c-4.3,3.4-6.8,8.6-6.8,14.1s2.5,10.7,6.8,14.1c-2.7,1.7-5.8,2.6-9,2.6C10.8,36.1,3.3,28.6,3.3,19.4L3.3,19.4z M40.2,36.1
				c-3.2,0-6.3-0.9-9-2.6c4.3-3.4,6.8-8.6,6.8-14.1S35.6,8.7,31.3,5.2c2.7-1.7,5.8-2.6,9-2.6c9.2,0,16.7,7.5,16.7,16.7
				C57,28.6,49.5,36.1,40.2,36.1L40.2,36.1z"/>
		</g>
	</g>
</g>
</svg>
