<?xml version="1.0" encoding="utf-8"?>
<!-- Generator: Adobe Illustrator 22.0.1, SVG Export Plug-In . SVG Version: 6.00 Build 0)  -->
<svg version="1.1" id="Layer_1" xmlns="http://www.w3.org/2000/svg" xmlns:xlink="http://www.w3.org/1999/xlink" x="40px" y="54px"
	 viewBox="0 0 40 54" style="enable-background:new 0 0 40 54;" xml:space="preserve">
<style type="text/css">
	.st0{fill:#D94D3D;}
	.st1{fill:#FFFFFF;}
	.st2{fill:#F0806C;}
</style>
<g id="DRtTzU.tif">
	<g>
		<path class="st0" d="M38,18.4c-0.2-1.2-0.2-2.3-0.5-3.5C36,7.5,30.1,2.2,22.6,1.2C15.4,0.1,8.1,3.5,4.4,9.9
			c-3.5,6-2.9,12.1,0.5,18c4.5,7.9,9.2,15.7,13.9,23.6c0.8,1.4,2,1.4,2.8,0c4.6-8,9.4-15.9,14-23.9C37.1,24.9,38,21.7,38,18.4z"/>
		<path class="st0" d="M38,18.4c0,3.3-0.9,6.5-2.6,9.4c-4.6,8-9.2,15.9-14,23.9C21.1,52.2,20.4,53,20,53c-0.8,0-1.1-0.8-1.4-1.4
			C14,43.8,9.4,35.9,4.7,28.1C1.4,22,0.9,16,4.4,9.9c3.7-6.5,10.9-9.8,18.3-8.8c7.5,1.1,13.4,6.5,14.9,13.7
			C37.8,16.1,37.8,17.2,38,18.4z"/>
	</g>
</g>
<g>
	<ellipse class="st1" cx="19.4" cy="18.3" rx="10.2" ry="8.5"/>
	<g>
		<g>
			<path class="st2" d="M19.6,7.1c-6,0-10.9,4.8-10.9,10.9s4.8,10.9,10.9,10.9S30.5,24,30.5,18S25.7,7.1,19.6,7.1z M26.3,24.4H13
				v-7.7l6.6-3.9l6.6,3.9V24.4z M27.2,16.6l-7.6-4.5l-7.6,4.5L11.8,16l7.9-4.8l3.9,2.4v-2.4h1.4v3.3l2.4,1.5L27.2,16.6z"/>
		</g>
	</g>
</g>
</svg>
