<?xml version="1.0" encoding="utf-8"?>
<!-- Generator: Adobe Illustrator 22.0.1, SVG Export Plug-In . SVG Version: 6.00 Build 0)  -->
<svg version="1.1" id="Layer_1" xmlns="http://www.w3.org/2000/svg" xmlns:xlink="http://www.w3.org/1999/xlink" x="0px" y="0px"
	 viewBox="0 0 52 39" style="enable-background:new 0 0 52 39;" xml:space="preserve">
<style type="text/css">
	.st0{fill:#E74C3C;}
</style>
<title>np_filters_699065_000000</title>
<desc>Created with Sketch.</desc>
<g id="Welcome">
	<g id="Home-filter-Copy" transform="translate(-150.000000, -775.000000)">
		<g id="np_filters_699065_000000" transform="translate(150.000000, 775.000000)">
			<path id="Shape" class="st0" d="M15.7,10c-1.6,0-2.9-1.3-2.9-2.9c0-1.6,1.3-2.9,2.9-2.9s2.9,1.3,2.9,2.9
				C18.7,8.7,17.3,10,15.7,10L15.7,10z M46.4,6.1h-25c-0.3,0-0.5,0.1-0.7,0.3c-0.4-2.4-2.5-4.3-5-4.3c-2.5,0-4.5,1.8-5,4.1
				c0,0-0.1,0-0.1,0H4.1C3.5,6.1,3,6.5,3,7.1c0,0.6,0.5,1.1,1.1,1.1h6.5c0.1,0,0.1,0,0.1,0c0.5,2.3,2.5,4,5,4c2.5,0,4.6-1.8,5-4.2
				c0.2,0.2,0.4,0.3,0.7,0.3c1.8,0,3.1,0,3.9,0c4.9,0,12.3,0,22.1,0c0.6,0,1.1-0.5,1.1-1.1c0-0.6-0.5-1.1-1.1-1.1L46.4,6.1z
				 M47.5,19h-6.1c-0.3-2.6-2.4-4.6-5.1-4.6c-2.6,0-4.8,2-5.1,4.6H4.1C3.5,19,3,19.5,3,20.1c0,0.6,0.5,1.1,1.1,1.1h27.4
				c0.7,2,2.6,3.5,4.8,3.5c2.2,0,4.1-1.5,4.8-3.5h6.4c0.6,0,1.1-0.5,1.1-1.1C48.6,19.5,48.1,19,47.5,19L47.5,19z M36.3,22.5
				c-1.6,0-2.9-1.3-2.9-2.9c0-1.6,1.3-2.9,2.9-2.9c1.6,0,2.9,1.3,2.9,2.9C39.2,21.2,37.9,22.5,36.3,22.5z M48.6,30.9
				c0-0.6-0.5-1.1-1.1-1.1h-26c-0.3,0-0.5,0.1-0.7,0.3c-0.5-2.3-2.5-4.1-5-4.1c-2.4,0-4.4,1.6-4.9,3.8c-0.1,0-0.1,0-0.2,0H4.1
				c-0.6,0-1.1,0.5-1.1,1.1C3,31.5,3.5,32,4.1,32h6.5c0,0,0.1,0,0.1,0c0.4,2.4,2.5,4.2,5,4.2c2.6,0,4.7-2,5-4.5
				c0.2,0.2,0.4,0.3,0.7,0.3h26C48.1,32,48.6,31.5,48.6,30.9L48.6,30.9z M15.7,34c-1.6,0-2.9-1.3-2.9-2.9c0-1.6,1.3-2.9,2.9-2.9
				s2.9,1.3,2.9,2.9C18.7,32.7,17.3,34,15.7,34L15.7,34z"/>
		</g>
	</g>
</g>
</svg>
