<?xml version="1.0" encoding="utf-8"?>
<!-- Generator: Adobe Illustrator 21.1.0, SVG Export Plug-In . SVG Version: 6.00 Build 0)  -->
<svg version="1.1" id="Layer_1" xmlns="http://www.w3.org/2000/svg" xmlns:xlink="http://www.w3.org/1999/xlink" x="0px" y="0px"
	 viewBox="0 0 324.2 104.7" style="enable-background:new 0 0 324.2 104.7;" xml:space="preserve">
<style type="text/css">
	.st0{enable-background:new    ;}
	.st1{fill:#2F3C5E;}
</style>
<g class="st0">
	<path class="st1" d="M25.5,63.7c0.5,0.4,1,0.9,1.7,1.5c0.7,0.6,1.5,1.2,2.4,1.8c1.4,0.9,2.7,1.6,4,2.1c1.3,0.5,2.7,0.8,4.2,0.8
		c1.4,0,2.5-0.2,3.4-0.5c0.9-0.3,1.6-0.7,2.2-1.2c0.5-0.5,0.9-1.1,1.1-1.7s0.3-1.4,0.3-2.1c0-0.8-0.3-1.6-0.9-2.2s-1.4-1.2-2.3-1.7
		c-0.9-0.5-1.8-0.9-2.8-1.3c-1-0.4-1.8-0.7-2.5-0.9c-3.2-1.1-6-2.3-8.3-3.6c-2.4-1.3-4.4-2.7-6-4.3c-1.6-1.6-2.8-3.3-3.6-5.2
		s-1.2-4-1.2-6.3c0-2.5,0.5-4.7,1.5-6.7s2.4-3.7,4.3-5.2c1.8-1.4,4.1-2.5,6.7-3.3c2.6-0.8,5.5-1.2,8.7-1.2c2.4,0,4.7,0.3,6.9,0.8
		s4.4,1.4,6.5,2.6c0.9,0.5,1.8,1.1,2.6,1.6c0.8,0.6,1.5,1.1,2.1,1.6c0.6,0.5,1.1,1,1.5,1.5c0.4,0.5,0.5,0.9,0.5,1.2s-0.1,0.7-0.3,1
		c-0.2,0.3-0.4,0.6-0.8,1l-6.1,6.5c-0.5,0.5-0.9,0.7-1.4,0.7c-0.4,0-0.7-0.1-1-0.3c-0.3-0.2-0.6-0.5-1-0.8l-0.4-0.3
		c-0.5-0.5-1.1-0.9-1.8-1.4c-0.6-0.5-1.3-0.9-2.1-1.3c-0.7-0.4-1.5-0.7-2.3-1c-0.8-0.3-1.7-0.4-2.5-0.4c-0.9,0-1.7,0.1-2.5,0.2
		s-1.4,0.4-2,0.7c-0.6,0.3-1,0.7-1.4,1.3c-0.3,0.5-0.5,1.1-0.5,1.9c0,0.7,0.2,1.4,0.6,1.9c0.4,0.5,0.9,1,1.7,1.5
		c0.7,0.5,1.7,0.9,2.8,1.3c1.1,0.4,2.4,0.9,3.8,1.3c2.8,0.9,5.4,1.9,7.8,2.9c2.4,1,4.4,2.2,6.1,3.6c1.7,1.4,3.1,3.1,4,5
		c1,1.9,1.5,4.3,1.5,7c0,2.9-0.6,5.6-1.8,7.9s-2.8,4.4-4.9,6.1c-2.1,1.7-4.5,3-7.3,3.9c-2.8,0.9-5.8,1.4-9.1,1.4c-3,0-6-0.5-9-1.6
		s-5.7-2.6-8.2-4.4c-1.1-0.8-2-1.5-2.7-2.3c-0.7-0.7-1.3-1.3-1.7-1.8l-0.1-0.1c0-0.1-0.1-0.1-0.1-0.1c0,0-0.1,0-0.1-0.1
		c0-0.1-0.1-0.1-0.1-0.1c0,0-0.1,0-0.1-0.1c-0.6-0.7-0.9-1.2-0.9-1.6c0-0.5,0.3-1,0.9-1.5l6.9-6.6c0.6-0.4,1-0.6,1.4-0.6
		c0.2,0,0.5,0.1,0.8,0.2C24.8,63.2,25.1,63.4,25.5,63.7z"/>
	<path class="st1" d="M68.8,25.5c0-0.5,0.2-0.9,0.5-1.2c0.3-0.3,0.8-0.5,1.3-0.5h11.8c0.5,0,0.9,0.2,1.2,0.5
		c0.4,0.3,0.6,0.7,0.6,1.3v43.2H106c0.5,0,0.9,0.2,1.2,0.5c0.3,0.3,0.5,0.8,0.5,1.3V81c0,0.5-0.2,0.9-0.5,1.2
		c-0.3,0.4-0.7,0.6-1.3,0.6H70.6c-1.2,0-1.7-0.6-1.7-1.7V25.5z"/>
</g>
<g class="st0">
	<path class="st1" d="M189,24.9c0.1-0.5,0.2-0.9,0.6-1.2c0.3-0.3,0.8-0.5,1.4-0.5h13.8c1,0,1.6,0.5,1.9,1.5l10.8,36.1l10.9-36.1
		c0.4-1,1-1.5,2-1.5h13.6c0.5,0,0.9,0.2,1.3,0.5c0.4,0.3,0.6,0.7,0.7,1.3c0.9,9.3,1.9,18.6,2.8,27.8c1,9.2,1.9,18.4,2.8,27.8v0.2
		c0,1-0.6,1.5-1.7,1.5h-11.2c-1.2,0-1.9-0.6-1.9-1.7l-3.5-30.7l-8.9,30.9c-0.1,0.3-0.2,0.6-0.6,1c-0.3,0.4-0.7,0.6-1,0.6h-10.5
		c-0.3,0-0.7-0.2-1-0.5s-0.5-0.7-0.6-1l-8.9-30.8l-3.5,30.6c-0.1,1.2-0.7,1.7-1.9,1.7H185c-1.1,0-1.7-0.6-1.7-1.7L189,24.9z"/>
	<path class="st1" d="M262.1,25c0-0.6,0.2-1,0.5-1.3s0.7-0.5,1.3-0.5h39.4c0.6,0,1,0.2,1.4,0.5c0.3,0.3,0.5,0.8,0.5,1.4v9.8
		c0,0.5-0.2,0.9-0.5,1.3c-0.3,0.4-0.8,0.6-1.4,0.6h-25.8v9.9h19.9c0.5,0,0.9,0.1,1.3,0.4c0.3,0.2,0.5,0.6,0.5,1.2v8.6
		c0,0.4-0.1,0.7-0.4,1.1c-0.3,0.3-0.7,0.5-1.3,0.5h-19.9v10.2h26.7c1.2,0,1.8,0.6,1.8,1.8v10c0,0.3-0.1,0.5-0.3,0.7
		c-0.1,0.7-0.6,1.1-1.6,1.1h-40.2c-0.5,0-1-0.1-1.3-0.4c-0.3-0.3-0.5-0.7-0.5-1.3V25z"/>
</g>
<g>
	<g>
		<g>
			<path class="st1" d="M146.1,22.3c-16.7,0-30.2,13.5-30.2,30.2s13.5,30.2,30.2,30.2s30.2-13.5,30.2-30.2S162.8,22.3,146.1,22.3z
				 M164.6,71h-37V49.7l18.5-11.1l18.5,11.1V71z M166.9,49L146,36.3L125.2,49l-0.9-1.6l21.8-13.3l11.1,6.8v-6.6h3.7v8.8l6.9,4.2
				L166.9,49z"/>
		</g>
	</g>
</g>
</svg>
