<?xml version="1.0" encoding="utf-8"?>
<!-- Generator: Adobe Illustrator 22.0.1, SVG Export Plug-In . SVG Version: 6.00 Build 0)  -->
<svg version="1.1" id="Layer_1" xmlns="http://www.w3.org/2000/svg" xmlns:xlink="http://www.w3.org/1999/xlink" x="0px" y="0px"
	 viewBox="0 0 100 100" style="enable-background:new 0 0 100 100;" xml:space="preserve">
<style type="text/css">
	.st0{stroke:#000000;stroke-width:2;stroke-miterlimit:10;}
</style>
<g>
	<circle cx="51.7" cy="17.7" r="7.2"/>
</g>
<g>
	<path class="st0" d="M33.2,48.1"/>
	<g>
		<path d="M38.6,52.8l-1.5,11L26.3,81.4c-1.2,1.9-0.6,4.3,1.3,5.5c0.7,0.4,1.4,0.6,2.1,0.6c1.3,0,2.7-0.7,3.4-1.9l11.3-18.4
			c0.3-0.5,0.5-1,0.6-1.6l1-7.4L38.6,52.8z"/>
		<path d="M73,40.7l-10.4-3.8c-1.6-2-3.3-4-4.9-6c-1.4-1.7-2.7-4.1-5.1-4.5c-0.9-0.1-4.4-0.4-5.3-0.3c-0.8,0.1-1.6,0.4-2.3,0.8
			L35.4,31c-1.4,0.6-3.1,1.2-4,2.6L25,44.7c-1.1,1.9-0.4,4.4,1.5,5.5c0.6,0.4,1.3,0.5,2,0.5c1.4,0,2.7-0.7,3.5-2l5.7-10l4.3-1.9
			l-3.1,13.9l7.4,5.3l11.1,8v19.2c0,2.2,1.8,4,4,4s4-1.8,4-4V62c0-1.3-0.6-2.5-1.6-3.2L51.7,50l2.6-10.8l2.9,3.6
			c0.5,0.6,1.1,1,1.7,1.2l11.4,4.2c2.1,0.8,4.4-0.3,5.1-2.4C76.2,43.7,75.1,41.4,73,40.7z"/>
	</g>
</g>
</svg>
